<svg width="104" height="11" viewBox="0 0 104 11" fill="none" xmlns="http://www.w3.org/2000/svg">
<path d="M4.30197e-05 10.024V0.153986H1.49804L4.99804 6.60799L8.48404 0.153986H9.95404V10.024H8.33004V3.37399L5.50204 8.52599H4.45204L1.62404 3.40199V10.024H4.30197e-05ZM11.8463 1.70799V-1.34706e-05H13.8063V1.70799H11.8463ZM11.9583 10.024V3.17799H13.7083V10.024H11.9583ZM15.5267 10.024V3.17799H17.2347V4.24199C17.468 3.84999 17.7807 3.55132 18.1727 3.34599C18.574 3.14065 19.022 3.03799 19.5167 3.03799C21.1314 3.03799 21.9387 3.97599 21.9387 5.85199V10.024H20.1887V5.93599C20.1887 5.40399 20.086 5.01665 19.8807 4.77399C19.6847 4.53132 19.3767 4.40999 18.9567 4.40999C18.4434 4.40999 18.0327 4.57332 17.7247 4.89999C17.426 5.21732 17.2767 5.64199 17.2767 6.17399V10.024H15.5267ZM27.0902 10.164C26.3155 10.164 25.6482 10.0193 25.0882 9.72999C24.5282 9.44065 24.0942 9.02999 23.7862 8.49799C23.4875 7.96599 23.3382 7.33599 23.3382 6.60799C23.3382 5.89865 23.4828 5.27799 23.7722 4.74599C24.0708 4.21399 24.4768 3.79865 24.9902 3.49999C25.5128 3.19199 26.1055 3.03799 26.7682 3.03799C27.7388 3.03799 28.5042 3.34599 29.0642 3.96199C29.6335 4.57799 29.9182 5.41799 29.9182 6.48199V6.99999H25.0182C25.1488 8.22265 25.8488 8.83399 27.1182 8.83399C27.5008 8.83399 27.8835 8.77799 28.2662 8.66599C28.6488 8.54465 28.9988 8.35799 29.3162 8.10599L29.8062 9.28199C29.4795 9.55265 29.0688 9.76732 28.5742 9.92599C28.0795 10.0847 27.5848 10.164 27.0902 10.164ZM26.8382 4.22799C26.3248 4.22799 25.9095 4.38665 25.5922 4.70399C25.2748 5.02132 25.0835 5.45065 25.0182 5.99199H28.4622C28.4248 5.42265 28.2662 4.98865 27.9862 4.68999C27.7155 4.38199 27.3328 4.22799 26.8382 4.22799ZM31.304 10.024V3.17799H33.012V4.38199C33.348 3.56999 34.0667 3.12199 35.168 3.03799L35.7 2.99599L35.812 4.47999L34.804 4.57799C33.656 4.68999 33.082 5.27799 33.082 6.34199V10.024H31.304ZM39.2263 10.024L36.2583 3.17799H38.1203L40.0243 7.96599L41.9983 3.17799H43.7483L40.7383 10.024H39.2263ZM46.7104 10.164C46.2157 10.164 45.7724 10.0707 45.3804 9.88399C44.9977 9.68799 44.6944 9.42665 44.4704 9.09999C44.2557 8.77332 44.1484 8.40465 44.1484 7.99399C44.1484 7.48999 44.2791 7.09332 44.5404 6.80399C44.8017 6.50532 45.2264 6.29065 45.8144 6.15999C46.4024 6.02932 47.1911 5.96399 48.1804 5.96399H48.6704V5.66999C48.6704 5.20332 48.5677 4.86732 48.3624 4.66199C48.1571 4.45665 47.8117 4.35399 47.3264 4.35399C46.9437 4.35399 46.5517 4.41465 46.1504 4.53599C45.7491 4.64799 45.3431 4.82532 44.9324 5.06799L44.4284 3.87799C44.6711 3.70999 44.9557 3.56532 45.2824 3.44399C45.6184 3.31332 45.9684 3.21532 46.3324 3.14999C46.7057 3.07532 47.0557 3.03799 47.3824 3.03799C48.3811 3.03799 49.1231 3.27132 49.6084 3.73799C50.0937 4.19532 50.3364 4.90932 50.3364 5.87999V10.024H48.6984V8.93199C48.5397 9.31465 48.2877 9.61799 47.9424 9.84199C47.5971 10.0567 47.1864 10.164 46.7104 10.164ZM47.0744 8.95999C47.5317 8.95999 47.9097 8.80132 48.2084 8.48399C48.5164 8.16665 48.6704 7.76532 48.6704 7.27999V6.97199H48.1944C47.3171 6.97199 46.7057 7.04199 46.3604 7.18199C46.0244 7.31265 45.8564 7.55532 45.8564 7.90999C45.8564 8.21799 45.9637 8.46999 46.1784 8.66599C46.3931 8.86199 46.6917 8.95999 47.0744 8.95999ZM56.0541 10.024V0.153986H60.3661C61.4021 0.153986 62.2047 0.382653 62.7741 0.839987C63.3434 1.28799 63.6281 1.91332 63.6281 2.71599C63.6281 3.24799 63.4927 3.70532 63.2221 4.08799C62.9514 4.47065 62.5781 4.75065 62.1021 4.92799C62.6621 5.08665 63.0961 5.36665 63.4041 5.76799C63.7214 6.15999 63.8801 6.65932 63.8801 7.26599C63.8801 8.14332 63.5814 8.82465 62.9841 9.30999C62.3961 9.78599 61.5747 10.024 60.5201 10.024H56.0541ZM57.7761 4.33999H60.0581C61.2807 4.33999 61.8921 3.86865 61.8921 2.92599C61.8921 1.98332 61.2807 1.51199 60.0581 1.51199H57.7761V4.33999ZM57.7761 8.66599H60.2961C61.5281 8.66599 62.1441 8.17132 62.1441 7.18199C62.1441 6.19265 61.5281 5.69799 60.2961 5.69799H57.7761V8.66599ZM67.7787 10.164C67.2841 10.164 66.8407 10.0707 66.4487 9.88399C66.0661 9.68799 65.7627 9.42665 65.5387 9.09999C65.3241 8.77332 65.2167 8.40465 65.2167 7.99399C65.2167 7.48999 65.3474 7.09332 65.6087 6.80399C65.8701 6.50532 66.2947 6.29065 66.8827 6.15999C67.4707 6.02932 68.2594 5.96399 69.2487 5.96399H69.7387V5.66999C69.7387 5.20332 69.6361 4.86732 69.4307 4.66199C69.2254 4.45665 68.8801 4.35399 68.3947 4.35399C68.0121 4.35399 67.6201 4.41465 67.2187 4.53599C66.8174 4.64799 66.4114 4.82532 66.0007 5.06799L65.4967 3.87799C65.7394 3.70999 66.0241 3.56532 66.3507 3.44399C66.6867 3.31332 67.0367 3.21532 67.4007 3.14999C67.7741 3.07532 68.1241 3.03799 68.4507 3.03799C69.4494 3.03799 70.1914 3.27132 70.6767 3.73799C71.1621 4.19532 71.4047 4.90932 71.4047 5.87999V10.024H69.7667V8.93199C69.6081 9.31465 69.3561 9.61799 69.0107 9.84199C68.6654 10.0567 68.2547 10.164 67.7787 10.164ZM68.1427 8.95999C68.6001 8.95999 68.9781 8.80132 69.2767 8.48399C69.5847 8.16665 69.7387 7.76532 69.7387 7.27999V6.97199H69.2627C68.3854 6.97199 67.7741 7.04199 67.4287 7.18199C67.0927 7.31265 66.9247 7.55532 66.9247 7.90999C66.9247 8.21799 67.0321 8.46999 67.2467 8.66599C67.4614 8.86199 67.7601 8.95999 68.1427 8.95999ZM73.181 10.024V3.17799H74.889V4.38199C75.225 3.56999 75.9437 3.12199 77.045 3.03799L77.577 2.99599L77.689 4.47999L76.681 4.57799C75.533 4.68999 74.959 5.27799 74.959 6.34199V10.024H73.181ZM78.6634 10.024V3.17799H80.3714V4.24199C80.6048 3.84999 80.9174 3.55132 81.3094 3.34599C81.7108 3.14065 82.1588 3.03799 82.6534 3.03799C84.2681 3.03799 85.0754 3.97599 85.0754 5.85199V10.024H83.3254V5.93599C83.3254 5.40399 83.2228 5.01665 83.0174 4.77399C82.8214 4.53132 82.5134 4.40999 82.0934 4.40999C81.5801 4.40999 81.1694 4.57332 80.8614 4.89999C80.5628 5.21732 80.4134 5.64199 80.4134 6.17399V10.024H78.6634ZM90.2269 10.164C89.4522 10.164 88.7849 10.0193 88.2249 9.72999C87.6649 9.44065 87.2309 9.02999 86.9229 8.49799C86.6242 7.96599 86.4749 7.33599 86.4749 6.60799C86.4749 5.89865 86.6195 5.27799 86.9089 4.74599C87.2075 4.21399 87.6135 3.79865 88.1269 3.49999C88.6495 3.19199 89.2422 3.03799 89.9049 3.03799C90.8755 3.03799 91.6409 3.34599 92.2009 3.96199C92.7702 4.57799 93.0549 5.41799 93.0549 6.48199V6.99999H88.1549C88.2855 8.22265 88.9855 8.83399 90.2549 8.83399C90.6375 8.83399 91.0202 8.77799 91.4029 8.66599C91.7855 8.54465 92.1355 8.35799 92.4529 8.10599L92.9429 9.28199C92.6162 9.55265 92.2055 9.76732 91.7109 9.92599C91.2162 10.0847 90.7215 10.164 90.2269 10.164ZM89.9749 4.22799C89.4615 4.22799 89.0462 4.38665 88.7289 4.70399C88.4115 5.02132 88.2202 5.45065 88.1549 5.99199H91.5989C91.5615 5.42265 91.4029 4.98865 91.1229 4.68999C90.8522 4.38199 90.4695 4.22799 89.9749 4.22799ZM97.5494 10.164C95.7388 10.164 94.8334 9.26799 94.8334 7.47599V4.49399H93.5174V3.17799H94.8334V1.13399H96.5834V3.17799H98.6554V4.49399H96.5834V7.37799C96.5834 7.82599 96.6814 8.16199 96.8774 8.38599C97.0734 8.60999 97.3908 8.72199 97.8294 8.72199C97.9601 8.72199 98.0954 8.70799 98.2354 8.67999C98.3754 8.64265 98.5201 8.60532 98.6694 8.56799L98.9354 9.85599C98.7674 9.94932 98.5528 10.024 98.2914 10.08C98.0394 10.136 97.7921 10.164 97.5494 10.164ZM102.526 10.164C100.715 10.164 99.81 9.26799 99.81 7.47599V4.49399H98.494V3.17799H99.81V1.13399H101.56V3.17799H103.632V4.49399H101.56V7.37799C101.56 7.82599 101.658 8.16199 101.854 8.38599C102.05 8.60999 102.367 8.72199 102.806 8.72199C102.937 8.72199 103.072 8.70799 103.212 8.67999C103.352 8.64265 103.497 8.60532 103.646 8.56799L103.912 9.85599C103.744 9.94932 103.529 10.024 103.268 10.08C103.016 10.136 102.769 10.164 102.526 10.164Z" fill="white"/>
</svg>
